<?xml version="1.0" standalone="no"?>
<!DOCTYPE svg PUBLIC "-//W3C//DTD SVG 20010904//EN"
 "http://www.w3.org/TR/2001/REC-SVG-20010904/DTD/svg10.dtd">
<svg version="1.0" xmlns="http://www.w3.org/2000/svg"
 width="1080.000000pt" height="1080.000000pt" viewBox="0 0 1080.000000 1080.000000"
 preserveAspectRatio="xMidYMid meet">
<metadata>
Created by potrace 1.14, written by Peter Selinger 2001-2017
</metadata>
<g transform="translate(0.000000,1080.000000) scale(0.100000,-0.100000)"
fill="#000000" stroke="none">
<path d="M0 5400 l0 -5400 5400 0 5400 0 0 5400 0 5400 -5400 0 -5400 0 0
-5400z m8215 3695 c59 -58 169 60 -1552 -1659 l-1578 -1575 320 -1 320 0 1080
1074 c595 590 1091 1077 1104 1081 54 17 110 -41 95 -99 -4 -17 -353 -371
-1020 -1035 -558 -554 -1014 -1011 -1014 -1015 0 -3 112 -6 249 -6 l250 0 20
-26 c25 -31 26 -56 6 -87 -8 -12 -946 -950 -2084 -2084 -1980 -1974 -2071
-2063 -2105 -2063 -46 0 -76 29 -76 72 0 30 162 195 2002 2035 l2003 2003
-676 0 c-669 0 -677 0 -703 21 -18 15 -26 30 -26 53 0 30 133 166 1648 1685
1534 1539 1649 1652 1680 1652 21 -1 42 -10 57 -26z m-1960 -1095 c11 -12 19
-36 19 -56 0 -33 -66 -100 -1232 -1267 -678 -678 -1232 -1235 -1232 -1240 0
-4 304 -7 675 -7 l676 0 24 -25 c56 -55 127 22 -1182 -1286 -665 -664 -1218
-1212 -1230 -1218 -30 -15 -65 -14 -91 5 -16 11 -22 25 -22 55 0 40 6 46 1135
1171 624 622 1135 1134 1135 1139 0 5 -295 9 -680 9 l-681 0 -24 25 c-57 56
-140 -34 1296 1398 1276 1271 1324 1317 1359 1317 24 0 43 -7 55 -20z m200
-3016 c24 -10 46 -60 39 -89 -4 -16 -383 -400 -1002 -1015 -922 -917 -998
-990 -1029 -990 -43 0 -73 30 -73 73 0 29 83 115 998 1030 1037 1037 1011
1012 1067 991z"/>
</g>
</svg>
